{
    "asset" : {
        "generator" : "Khronos glTF Blender I/O v1.7.33",
        "version" : "2.0"
    },
    "scene" : 0,
    "scenes" : [
        {
            "name" : "Scene",
            "nodes" : [
                0,
                1,
                2,
                3
            ]
        }
    ],
    "nodes" : [
        {
            "mesh" : 0,
            "name" : "sv_mysterio02_02",
            "rotation" : [
                0.07132162153720856,
                0,
                0,
                0.9974533915519714
            ],
            "translation" : [
                0,
                -0.42218297719955444,
                -0.5175511240959167
            ]
        },
        {
            "mesh" : 1,
            "name" : "sv_mysterio02_03",
            "rotation" : [
                0.07132162153720856,
                0,
                0,
                0.9974533915519714
            ],
            "translation" : [
                0,
                -0.4225699305534363,
                -0.5148590207099915
            ]
        },
        {
            "mesh" : 2,
            "name" : "sv_mysterio02_01",
            "rotation" : [
                0.07132162153720856,
                0,
                0,
                0.9974533915519714
            ],
            "translation" : [
                0,
                -0.42218297719955444,
                -0.5175511240959167
            ]
        },
        {
            "mesh" : 3,
            "name" : "sv_mysterio02_04",
            "rotation" : [
                0.07132162153720856,
                0,
                0,
                0.9974533915519714
            ],
            "translation" : [
                0,
                1.244760513305664,
                -0.2921006679534912
            ]
        }
    ],
    "materials" : [
        {
            "doubleSided" : true,
            "name" : "sv_mysterio02_02",
            "pbrMetallicRoughness" : {
                "baseColorTexture" : {
                    "index" : 0
                },
                "metallicFactor" : 0,
                "roughnessFactor" : 0.5527864098548889
            }
        },
        {
            "doubleSided" : true,
            "name" : "sv_mysterio02_03",
            "pbrMetallicRoughness" : {
                "baseColorTexture" : {
                    "index" : 1
                },
                "metallicFactor" : 0,
                "roughnessFactor" : 0.5527864098548889
            }
        },
        {
            "doubleSided" : true,
            "name" : "sv_mysterio02_01",
            "pbrMetallicRoughness" : {
                "baseColorTexture" : {
                    "index" : 2
                },
                "metallicFactor" : 0,
                "roughnessFactor" : 0.5527864098548889
            }
        },
        {
            "doubleSided" : true,
            "name" : "sv_mysterio02_04",
            "normalTexture" : {
                "index" : 3,
                "scale" : 0
            },
            "pbrMetallicRoughness" : {
                "baseColorTexture" : {
                    "index" : 4
                },
                "metallicFactor" : 0,
                "metallicRoughnessTexture" : {
                    "index" : 5
                }
            }
        }
    ],
    "meshes" : [
        {
            "name" : "sv_mysterio02_02",
            "primitives" : [
                {
                    "attributes" : {
                        "POSITION" : 0,
                        "NORMAL" : 1,
                        "TEXCOORD_0" : 2
                    },
                    "indices" : 3,
                    "material" : 0
                }
            ]
        },
        {
            "name" : "sv_mysterio02_03",
            "primitives" : [
                {
                    "attributes" : {
                        "POSITION" : 4,
                        "NORMAL" : 5,
                        "TEXCOORD_0" : 6
                    },
                    "indices" : 7,
                    "material" : 1
                }
            ]
        },
        {
            "name" : "sv_mysterio02_01",
            "primitives" : [
                {
                    "attributes" : {
                        "POSITION" : 8,
                        "NORMAL" : 9,
                        "TEXCOORD_0" : 10
                    },
                    "indices" : 11,
                    "material" : 2
                }
            ]
        },
        {
            "name" : "sv_mysterio02_04",
            "primitives" : [
                {
                    "attributes" : {
                        "POSITION" : 12,
                        "NORMAL" : 13,
                        "TEXCOORD_0" : 14
                    },
                    "indices" : 15,
                    "material" : 3
                }
            ]
        }
    ],
    "textures" : [
        {
            "sampler" : 0,
            "source" : 0
        },
        {
            "sampler" : 0,
            "source" : 1
        },
        {
            "sampler" : 0,
            "source" : 2
        },
        {
            "sampler" : 0,
            "source" : 3
        },
        {
            "sampler" : 0,
            "source" : 4
        },
        {
            "sampler" : 0,
            "source" : 5
        }
    ],
    "images" : [
        {
            "mimeType" : "image/png",
            "name" : "sv_mysterio02_02",
            "uri" : "sv_mysterio02_02.png"
        },
        {
            "mimeType" : "image/png",
            "name" : "sv_mysterio02_03",
            "uri" : "sv_mysterio02_03.png"
        },
        {
            "mimeType" : "image/png",
            "name" : "sv_mysterio02_01",
            "uri" : "sv_mysterio02_01.png"
        },
        {
            "mimeType" : "image/png",
            "name" : "ground_0031_normal_opengl_2k",
            "uri" : "ground_0031_normal_opengl_2k.png"
        },
        {
            "mimeType" : "image/jpeg",
            "name" : "ground_0031_subsurface_2k",
            "uri" : "ground_0031_subsurface_2k.jpg"
        },
        {
            "mimeType" : "image/png",
            "name" : "ground_0031_roughness_2k",
            "uri" : "ground_0031_roughness_2k.png"
        }
    ],
    "accessors" : [
        {
            "bufferView" : 0,
            "componentType" : 5126,
            "count" : 1566,
            "max" : [
                0.5669639706611633,
                1.5052021741867065,
                0.17194899916648865
            ],
            "min" : [
                -0.5669639706611633,
                0.003262047655880451,
                -0.16582278907299042
            ],
            "type" : "VEC3"
        },
        {
            "bufferView" : 1,
            "componentType" : 5126,
            "count" : 1566,
            "type" : "VEC3"
        },
        {
            "bufferView" : 2,
            "componentType" : 5126,
            "count" : 1566,
            "type" : "VEC2"
        },
        {
            "bufferView" : 3,
            "componentType" : 5123,
            "count" : 6810,
            "type" : "SCALAR"
        },
        {
            "bufferView" : 4,
            "componentType" : 5126,
            "count" : 723,
            "max" : [
                0.6137220859527588,
                1.6208081245422363,
                0.11054936796426773
            ],
            "min" : [
                -0.6137220859527588,
                -0.006101206410676241,
                -0.49869704246520996
            ],
            "type" : "VEC3"
        },
        {
            "bufferView" : 5,
            "componentType" : 5126,
            "count" : 723,
            "type" : "VEC3"
        },
        {
            "bufferView" : 6,
            "componentType" : 5126,
            "count" : 723,
            "type" : "VEC2"
        },
        {
            "bufferView" : 7,
            "componentType" : 5123,
            "count" : 3108,
            "type" : "SCALAR"
        },
        {
            "bufferView" : 8,
            "componentType" : 5126,
            "count" : 3052,
            "max" : [
                0.5219661593437195,
                1.6196922063827515,
                0.15542861819267273
            ],
            "min" : [
                -0.5219661593437195,
                0.46050962805747986,
                -0.18680667877197266
            ],
            "type" : "VEC3"
        },
        {
            "bufferView" : 9,
            "componentType" : 5126,
            "count" : 3052,
            "type" : "VEC3"
        },
        {
            "bufferView" : 10,
            "componentType" : 5126,
            "count" : 3052,
            "type" : "VEC2"
        },
        {
            "bufferView" : 11,
            "componentType" : 5123,
            "count" : 8256,
            "type" : "SCALAR"
        },
        {
            "bufferView" : 12,
            "componentType" : 5126,
            "count" : 227,
            "max" : [
                0.15458761155605316,
                0.15884700417518616,
                0.15460936725139618
            ],
            "min" : [
                -0.15458761155605316,
                -0.15884700417518616,
                -0.15460936725139618
            ],
            "type" : "VEC3"
        },
        {
            "bufferView" : 13,
            "componentType" : 5126,
            "count" : 227,
            "type" : "VEC3"
        },
        {
            "bufferView" : 14,
            "componentType" : 5126,
            "count" : 227,
            "type" : "VEC2"
        },
        {
            "bufferView" : 15,
            "componentType" : 5123,
            "count" : 1080,
            "type" : "SCALAR"
        }
    ],
    "bufferViews" : [
        {
            "buffer" : 0,
            "byteLength" : 18792,
            "byteOffset" : 0
        },
        {
            "buffer" : 0,
            "byteLength" : 18792,
            "byteOffset" : 18792
        },
        {
            "buffer" : 0,
            "byteLength" : 12528,
            "byteOffset" : 37584
        },
        {
            "buffer" : 0,
            "byteLength" : 13620,
            "byteOffset" : 50112
        },
        {
            "buffer" : 0,
            "byteLength" : 8676,
            "byteOffset" : 63732
        },
        {
            "buffer" : 0,
            "byteLength" : 8676,
            "byteOffset" : 72408
        },
        {
            "buffer" : 0,
            "byteLength" : 5784,
            "byteOffset" : 81084
        },
        {
            "buffer" : 0,
            "byteLength" : 6216,
            "byteOffset" : 86868
        },
        {
            "buffer" : 0,
            "byteLength" : 36624,
            "byteOffset" : 93084
        },
        {
            "buffer" : 0,
            "byteLength" : 36624,
            "byteOffset" : 129708
        },
        {
            "buffer" : 0,
            "byteLength" : 24416,
            "byteOffset" : 166332
        },
        {
            "buffer" : 0,
            "byteLength" : 16512,
            "byteOffset" : 190748
        },
        {
            "buffer" : 0,
            "byteLength" : 2724,
            "byteOffset" : 207260
        },
        {
            "buffer" : 0,
            "byteLength" : 2724,
            "byteOffset" : 209984
        },
        {
            "buffer" : 0,
            "byteLength" : 1816,
            "byteOffset" : 212708
        },
        {
            "buffer" : 0,
            "byteLength" : 2160,
            "byteOffset" : 214524
        }
    ],
    "samplers" : [
        {
            "magFilter" : 9729,
            "minFilter" : 9987
        }
    ],
    "buffers" : [
        {
            "byteLength" : 216684,
            "uri" : "mysterio.bin"
        }
    ]
}
