{
    "asset" : {
        "generator" : "Khronos glTF Blender I/O v1.7.33",
        "version" : "2.0"
    },
    "scene" : 0,
    "scenes" : [
        {
            "name" : "Scene",
            "nodes" : [
                0,
                1,
                2,
                3
            ]
        }
    ],
    "nodes" : [
        {
            "mesh" : 0,
            "name" : "hero_spiderman01_s08_03",
            "rotation" : [
                0.07047723978757858,
                0,
                0,
                0.9975134134292603
            ],
            "translation" : [
                0,
                -0.2612338960170746,
                -0.3622433543205261
            ]
        },
        {
            "mesh" : 1,
            "name" : "hero_spiderman01_s08_02",
            "rotation" : [
                0.07047723978757858,
                0,
                0,
                0.9975134134292603
            ],
            "translation" : [
                0,
                -0.2612338960170746,
                -0.3622433543205261
            ]
        },
        {
            "mesh" : 2,
            "name" : "hero_spiderman01_s08_01",
            "rotation" : [
                0.07047723978757858,
                0,
                0,
                0.9975134134292603
            ],
            "translation" : [
                0,
                -0.2612338960170746,
                -0.3622433543205261
            ]
        },
        {
            "mesh" : 3,
            "name" : "hero_spiderman01_s08_wp",
            "rotation" : [
                0.07047723978757858,
                0,
                0,
                0.9975134134292603
            ],
            "scale" : [
                0.7999998927116394,
                0.8000000715255737,
                0.7999998927116394
            ],
            "translation" : [
                0,
                1.0864310264587402,
                -0.4019622206687927
            ]
        }
    ],
    "materials" : [
        {
            "doubleSided" : true,
            "name" : "hero_spiderman01_s08_03.001",
            "pbrMetallicRoughness" : {
                "baseColorTexture" : {
                    "index" : 0
                },
                "metallicRoughnessTexture" : {
                    "index" : 1
                }
            }
        },
        {
            "doubleSided" : true,
            "name" : "hero_spiderman01_s08_02.001",
            "pbrMetallicRoughness" : {
                "baseColorTexture" : {
                    "index" : 2
                },
                "metallicRoughnessTexture" : {
                    "index" : 3
                }
            }
        },
        {
            "doubleSided" : true,
            "name" : "hero_spiderman01_s08_01.001",
            "pbrMetallicRoughness" : {
                "baseColorTexture" : {
                    "index" : 4
                },
                "metallicRoughnessTexture" : {
                    "index" : 5
                }
            }
        },
        {
            "doubleSided" : true,
            "name" : "hero_spiderman01_s08_wp.001",
            "pbrMetallicRoughness" : {
                "baseColorTexture" : {
                    "index" : 6
                },
                "metallicRoughnessTexture" : {
                    "index" : 7
                }
            }
        }
    ],
    "meshes" : [
        {
            "name" : "hero_spiderman01_s08_03",
            "primitives" : [
                {
                    "attributes" : {
                        "POSITION" : 0,
                        "NORMAL" : 1,
                        "TEXCOORD_0" : 2
                    },
                    "indices" : 3,
                    "material" : 0
                }
            ]
        },
        {
            "name" : "hero_spiderman01_s08_02",
            "primitives" : [
                {
                    "attributes" : {
                        "POSITION" : 4,
                        "NORMAL" : 5,
                        "TEXCOORD_0" : 6
                    },
                    "indices" : 7,
                    "material" : 1
                }
            ]
        },
        {
            "name" : "hero_spiderman01_s08_01",
            "primitives" : [
                {
                    "attributes" : {
                        "POSITION" : 8,
                        "NORMAL" : 9,
                        "TEXCOORD_0" : 10
                    },
                    "indices" : 11,
                    "material" : 2
                }
            ]
        },
        {
            "name" : "hero_spiderman01_s08_wp",
            "primitives" : [
                {
                    "attributes" : {
                        "POSITION" : 12,
                        "NORMAL" : 13,
                        "TEXCOORD_0" : 14
                    },
                    "indices" : 15,
                    "material" : 3
                }
            ]
        }
    ],
    "textures" : [
        {
            "sampler" : 0,
            "source" : 0
        },
        {
            "sampler" : 0,
            "source" : 1
        },
        {
            "sampler" : 0,
            "source" : 2
        },
        {
            "sampler" : 0,
            "source" : 3
        },
        {
            "sampler" : 0,
            "source" : 4
        },
        {
            "sampler" : 0,
            "source" : 5
        },
        {
            "sampler" : 0,
            "source" : 6
        },
        {
            "sampler" : 0,
            "source" : 7
        }
    ],
    "images" : [
        {
            "mimeType" : "image/png",
            "name" : "hero_spiderman01_s08_03",
            "uri" : "hero_spiderman01_s08_03.png"
        },
        {
            "mimeType" : "image/png",
            "name" : "hero_spiderman01_s08_03_m-hero_spiderman01_s08_03_r",
            "uri" : "hero_spiderman01_s08_03_m-hero_spiderman01_s08_03_r.png"
        },
        {
            "mimeType" : "image/png",
            "name" : "hero_spiderman01_s08_02",
            "uri" : "hero_spiderman01_s08_02.png"
        },
        {
            "mimeType" : "image/png",
            "name" : "hero_spiderman01_s08_02_m-hero_spiderman01_s08_02_r",
            "uri" : "hero_spiderman01_s08_02_m-hero_spiderman01_s08_02_r.png"
        },
        {
            "mimeType" : "image/png",
            "name" : "hero_spiderman01_s08_01",
            "uri" : "hero_spiderman01_s08_01.png"
        },
        {
            "mimeType" : "image/png",
            "name" : "hero_spiderman01_s08_01_m-hero_spiderman01_s08_01_r",
            "uri" : "hero_spiderman01_s08_01_m-hero_spiderman01_s08_01_r.png"
        },
        {
            "mimeType" : "image/png",
            "name" : "hero_spiderman01_s08_wp",
            "uri" : "hero_spiderman01_s08_wp.png"
        },
        {
            "mimeType" : "image/png",
            "name" : "hero_spiderman01_s08_wp_m-hero_spiderman01_s08_wp_r",
            "uri" : "hero_spiderman01_s08_wp_m-hero_spiderman01_s08_wp_r.png"
        }
    ],
    "accessors" : [
        {
            "bufferView" : 0,
            "componentType" : 5126,
            "count" : 622,
            "max" : [
                0.27456343173980713,
                1.4924969673156738,
                0.03927673399448395
            ],
            "min" : [
                -0.27456343173980713,
                0.0003383976290933788,
                -0.284611314535141
            ],
            "type" : "VEC3"
        },
        {
            "bufferView" : 1,
            "componentType" : 5126,
            "count" : 622,
            "type" : "VEC3"
        },
        {
            "bufferView" : 2,
            "componentType" : 5126,
            "count" : 622,
            "type" : "VEC2"
        },
        {
            "bufferView" : 3,
            "componentType" : 5123,
            "count" : 2100,
            "type" : "SCALAR"
        },
        {
            "bufferView" : 4,
            "componentType" : 5126,
            "count" : 1342,
            "max" : [
                0.5796111822128296,
                1.6895220279693604,
                -0.006208496168255806
            ],
            "min" : [
                -0.5796111822128296,
                0.3939509391784668,
                -0.27990996837615967
            ],
            "type" : "VEC3"
        },
        {
            "bufferView" : 5,
            "componentType" : 5126,
            "count" : 1342,
            "type" : "VEC3"
        },
        {
            "bufferView" : 6,
            "componentType" : 5126,
            "count" : 1342,
            "type" : "VEC2"
        },
        {
            "bufferView" : 7,
            "componentType" : 5123,
            "count" : 5298,
            "type" : "SCALAR"
        },
        {
            "bufferView" : 8,
            "componentType" : 5126,
            "count" : 2054,
            "max" : [
                0.5925604104995728,
                1.7702380418777466,
                0.05653991550207138
            ],
            "min" : [
                -0.5925604104995728,
                0.0003383976290933788,
                -0.26325011253356934
            ],
            "type" : "VEC3"
        },
        {
            "bufferView" : 9,
            "componentType" : 5126,
            "count" : 2054,
            "type" : "VEC3"
        },
        {
            "bufferView" : 10,
            "componentType" : 5126,
            "count" : 2054,
            "type" : "VEC2"
        },
        {
            "bufferView" : 11,
            "componentType" : 5123,
            "count" : 6888,
            "type" : "SCALAR"
        },
        {
            "bufferView" : 12,
            "componentType" : 5126,
            "count" : 1016,
            "max" : [
                0.743457019329071,
                0.928708016872406,
                0.13669782876968384
            ],
            "min" : [
                -0.7434592843055725,
                -0.661426842212677,
                -0.9060457944869995
            ],
            "type" : "VEC3"
        },
        {
            "bufferView" : 13,
            "componentType" : 5126,
            "count" : 1016,
            "type" : "VEC3"
        },
        {
            "bufferView" : 14,
            "componentType" : 5126,
            "count" : 1016,
            "type" : "VEC2"
        },
        {
            "bufferView" : 15,
            "componentType" : 5123,
            "count" : 3600,
            "type" : "SCALAR"
        }
    ],
    "bufferViews" : [
        {
            "buffer" : 0,
            "byteLength" : 7464,
            "byteOffset" : 0
        },
        {
            "buffer" : 0,
            "byteLength" : 7464,
            "byteOffset" : 7464
        },
        {
            "buffer" : 0,
            "byteLength" : 4976,
            "byteOffset" : 14928
        },
        {
            "buffer" : 0,
            "byteLength" : 4200,
            "byteOffset" : 19904
        },
        {
            "buffer" : 0,
            "byteLength" : 16104,
            "byteOffset" : 24104
        },
        {
            "buffer" : 0,
            "byteLength" : 16104,
            "byteOffset" : 40208
        },
        {
            "buffer" : 0,
            "byteLength" : 10736,
            "byteOffset" : 56312
        },
        {
            "buffer" : 0,
            "byteLength" : 10596,
            "byteOffset" : 67048
        },
        {
            "buffer" : 0,
            "byteLength" : 24648,
            "byteOffset" : 77644
        },
        {
            "buffer" : 0,
            "byteLength" : 24648,
            "byteOffset" : 102292
        },
        {
            "buffer" : 0,
            "byteLength" : 16432,
            "byteOffset" : 126940
        },
        {
            "buffer" : 0,
            "byteLength" : 13776,
            "byteOffset" : 143372
        },
        {
            "buffer" : 0,
            "byteLength" : 12192,
            "byteOffset" : 157148
        },
        {
            "buffer" : 0,
            "byteLength" : 12192,
            "byteOffset" : 169340
        },
        {
            "buffer" : 0,
            "byteLength" : 8128,
            "byteOffset" : 181532
        },
        {
            "buffer" : 0,
            "byteLength" : 7200,
            "byteOffset" : 189660
        }
    ],
    "samplers" : [
        {
            "magFilter" : 9729,
            "minFilter" : 9987
        }
    ],
    "buffers" : [
        {
            "byteLength" : 196860,
            "uri" : "spiderman.bin"
        }
    ]
}
